<svg width="1920" height="1080" viewBox="0 0 1920 1080" fill="none" xmlns="http://www.w3.org/2000/svg">
<rect width="1920" height="1080" fill="#1E1E1E"/>
<rect width="1920" height="1080" fill="white"/>
<rect x="1037" y="164" width="750" height="750" rx="250" fill="#008905"/>
<path d="M1586.88 620.902C1586.88 635.388 1584.12 649.06 1578.58 661.918C1573.21 674.613 1565.72 685.762 1556.12 695.365C1546.68 704.805 1535.53 712.292 1522.67 717.826C1509.98 723.197 1496.39 725.883 1481.9 725.883C1468.88 725.883 1456.35 723.604 1444.3 719.047C1432.42 714.49 1421.68 707.816 1412.08 699.027C1402.48 707.816 1391.65 714.49 1379.61 719.047C1367.56 723.604 1355.03 725.883 1342.01 725.883C1327.52 725.883 1313.85 723.197 1300.99 717.826C1288.3 712.292 1277.15 704.805 1267.55 695.365C1258.11 685.762 1250.62 674.613 1245.09 661.918C1239.71 649.06 1237.03 635.388 1237.03 620.902V370.902H1307.1V620.902C1307.1 625.785 1307.99 630.424 1309.78 634.818C1311.57 639.05 1314.01 642.794 1317.11 646.049C1320.36 649.141 1324.11 651.583 1328.34 653.373C1332.57 655.163 1337.13 656.059 1342.01 656.059C1346.89 656.059 1351.45 655.163 1355.68 653.373C1359.91 651.583 1363.58 649.141 1366.67 646.049C1369.92 642.794 1372.45 639.05 1374.24 634.818C1376.03 630.424 1376.92 625.785 1376.92 620.902V370.902H1446.99V620.902C1446.99 625.785 1447.89 630.424 1449.68 634.818C1451.47 639.05 1453.91 642.794 1457 646.049C1460.26 649.141 1464 651.583 1468.23 653.373C1472.46 655.163 1477.02 656.059 1481.9 656.059C1486.79 656.059 1491.34 655.163 1495.57 653.373C1499.81 651.583 1503.47 649.141 1506.56 646.049C1509.82 642.794 1512.34 639.05 1514.13 634.818C1516.08 630.424 1517.06 625.785 1517.06 620.902V370.902H1586.88V620.902Z" fill="white"/>
<path d="M1578.58 661.918L1574.91 660.337L1574.9 660.348L1574.9 660.359L1578.58 661.918ZM1556.12 695.365L1558.95 698.194L1556.12 695.365ZM1522.67 717.826L1524.23 721.51L1524.24 721.505L1524.26 721.5L1522.67 717.826ZM1444.3 719.047L1442.87 722.782L1442.88 722.785L1442.89 722.788L1444.3 719.047ZM1412.08 699.027L1414.78 696.077L1412.08 693.605L1409.38 696.077L1412.08 699.027ZM1300.99 717.826L1299.4 721.493L1299.42 721.505L1299.45 721.517L1300.99 717.826ZM1267.55 695.365L1264.69 698.169L1264.72 698.194L1264.74 698.218L1267.55 695.365ZM1245.09 661.918L1241.4 663.46L1241.41 663.488L1241.42 663.516L1245.09 661.918ZM1237.03 370.902V366.902H1233.03V370.902H1237.03ZM1307.1 370.902H1311.1V366.902H1307.1V370.902ZM1309.78 634.818L1306.08 636.328L1306.09 636.352L1306.1 636.377L1309.78 634.818ZM1317.11 646.049L1314.21 648.804L1314.28 648.878L1314.35 648.949L1317.11 646.049ZM1328.34 653.373L1326.78 657.057L1328.34 653.373ZM1366.67 646.049L1363.84 643.22L1366.67 646.049ZM1374.24 634.818L1377.92 636.377L1377.93 636.352L1377.94 636.328L1374.24 634.818ZM1376.92 370.902V366.902H1372.92V370.902H1376.92ZM1446.99 370.902H1450.99V366.902H1446.99V370.902ZM1449.68 634.818L1445.97 636.328L1445.98 636.352L1445.99 636.377L1449.68 634.818ZM1457 646.049L1454.1 648.804L1454.17 648.878L1454.25 648.949L1457 646.049ZM1506.56 646.049L1509.39 648.877L1506.56 646.049ZM1514.13 634.818L1510.47 633.194L1510.46 633.227L1510.45 633.26L1514.13 634.818ZM1517.06 370.902V366.902H1513.06V370.902H1517.06ZM1586.88 370.902H1590.88V366.902H1586.88V370.902ZM1582.88 620.902C1582.88 634.864 1580.22 647.996 1574.91 660.337L1582.26 663.499C1588.01 650.124 1590.88 635.912 1590.88 620.902H1582.88ZM1574.9 660.359C1569.72 672.588 1562.53 683.304 1553.29 692.537L1558.95 698.194C1568.92 688.221 1576.7 676.639 1582.27 663.477L1574.9 660.359ZM1553.29 692.537C1544.23 701.601 1533.51 708.809 1521.09 714.152L1524.26 721.5C1537.56 715.776 1549.13 708.009 1558.95 698.194L1553.29 692.537ZM1521.12 714.142C1508.94 719.294 1495.88 721.883 1481.9 721.883V729.883C1496.9 729.883 1511.02 727.1 1524.23 721.51L1521.12 714.142ZM1481.9 721.883C1469.36 721.883 1457.31 719.69 1445.72 715.306L1442.89 722.788C1455.39 727.518 1468.4 729.883 1481.9 729.883V721.883ZM1445.74 715.312C1434.33 710.939 1424.02 704.535 1414.78 696.077L1409.38 701.978C1419.34 711.098 1430.51 718.041 1442.87 722.782L1445.74 715.312ZM1409.38 696.077C1400.14 704.527 1389.76 710.93 1378.19 715.306L1381.02 722.788C1393.55 718.049 1404.81 711.106 1414.78 701.978L1409.38 696.077ZM1378.19 715.306C1366.61 719.69 1354.55 721.883 1342.01 721.883V729.883C1355.51 729.883 1368.52 727.518 1381.02 722.788L1378.19 715.306ZM1342.01 721.883C1328.03 721.883 1314.89 719.294 1302.54 714.135L1299.45 721.517C1312.82 727.1 1327.02 729.883 1342.01 729.883V721.883ZM1302.59 714.159C1290.33 708.815 1279.6 701.6 1270.35 692.513L1264.74 698.218C1274.7 708.01 1286.27 715.769 1299.4 721.493L1302.59 714.159ZM1270.4 692.561C1261.31 683.317 1254.1 672.58 1248.75 660.32L1241.42 663.516C1247.14 676.647 1254.9 688.208 1264.69 698.169L1270.4 692.561ZM1248.78 660.376C1243.62 648.026 1241.03 634.88 1241.03 620.902H1233.03C1233.03 635.896 1235.81 650.094 1241.4 663.46L1248.78 660.376ZM1241.03 620.902V370.902H1233.03V620.902H1241.03ZM1237.03 374.902H1307.1V366.902H1237.03V374.902ZM1303.1 370.902V620.902H1311.1V370.902H1303.1ZM1303.1 620.902C1303.1 626.287 1304.09 631.44 1306.08 636.328L1313.49 633.309C1311.9 629.408 1311.1 625.283 1311.1 620.902H1303.1ZM1306.1 636.377C1308.07 641.041 1310.78 645.192 1314.21 648.804L1320.01 643.294C1317.25 640.395 1315.07 637.059 1313.47 633.26L1306.1 636.377ZM1314.35 648.949C1317.96 652.38 1322.12 655.084 1326.78 657.057L1329.9 649.689C1326.1 648.082 1322.76 645.902 1319.86 643.149L1314.35 648.949ZM1326.78 657.057C1331.53 659.069 1336.63 660.059 1342.01 660.059V652.059C1337.63 652.059 1333.6 651.258 1329.9 649.689L1326.78 657.057ZM1342.01 660.059C1347.39 660.059 1352.48 659.069 1357.24 657.057L1354.12 649.689C1350.41 651.258 1346.39 652.059 1342.01 652.059V660.059ZM1357.24 657.057C1361.92 655.076 1366.02 652.352 1369.5 648.877L1363.84 643.22C1361.13 645.93 1357.9 648.089 1354.12 649.689L1357.24 657.057ZM1369.5 648.877C1373.12 645.258 1375.93 641.084 1377.92 636.377L1370.55 633.26C1368.96 637.016 1366.73 640.329 1363.84 643.22L1369.5 648.877ZM1377.94 636.328C1379.93 631.44 1380.92 626.287 1380.92 620.902H1372.92C1372.92 625.283 1372.12 629.408 1370.53 633.309L1377.94 636.328ZM1380.92 620.902V370.902H1372.92V620.902H1380.92ZM1376.92 374.902H1446.99V366.902H1376.92V374.902ZM1442.99 370.902V620.902H1450.99V370.902H1442.99ZM1442.99 620.902C1442.99 626.287 1443.98 631.44 1445.97 636.328L1453.38 633.309C1451.79 629.408 1450.99 625.283 1450.99 620.902H1442.99ZM1445.99 636.377C1447.97 641.041 1450.67 645.192 1454.1 648.804L1459.9 643.294C1457.15 640.395 1454.97 637.059 1453.36 633.26L1445.99 636.377ZM1454.25 648.949C1457.86 652.38 1462.01 655.084 1466.67 657.057L1469.79 649.689C1465.99 648.082 1462.65 645.902 1459.75 643.149L1454.25 648.949ZM1466.67 657.057C1471.43 659.069 1476.52 660.059 1481.9 660.059V652.059C1477.52 652.059 1473.5 651.258 1469.79 649.689L1466.67 657.057ZM1481.9 660.059C1487.29 660.059 1492.38 659.069 1497.13 657.057L1494.02 649.689C1490.31 651.258 1486.28 652.059 1481.9 652.059V660.059ZM1497.13 657.057C1501.81 655.076 1505.91 652.352 1509.39 648.877L1503.73 643.22C1501.02 645.93 1497.8 648.089 1494.02 649.689L1497.13 657.057ZM1509.39 648.877C1513.01 645.258 1515.82 641.084 1517.81 636.377L1510.45 633.26C1508.86 637.016 1506.62 640.329 1503.73 643.22L1509.39 648.877ZM1517.78 636.443C1519.97 631.529 1521.06 626.336 1521.06 620.902H1513.06C1513.06 625.234 1512.2 629.319 1510.47 633.194L1517.78 636.443ZM1521.06 620.902V370.902H1513.06V620.902H1521.06ZM1517.06 374.902H1586.88V366.902H1517.06V374.902ZM1582.88 370.902V620.902H1590.88V370.902H1582.88Z" fill="black"/>
<g opacity="0.98" filter="url(#filter0_b_0_1)">
<rect x="1166" y="499" width="492" height="80" rx="40" fill="#026300" fill-opacity="0.5"/>
</g>
<line x1="1236" y1="581.5" x2="1589" y2="581.5" stroke="black" stroke-width="5"/>
<rect x="117" y="165" width="750" height="750" rx="228" fill="url(#paint0_linear_0_1)" stroke="black" stroke-width="9"/>
<path d="M666.883 621.902C666.883 636.388 664.116 650.06 658.582 662.918C653.211 675.613 645.724 686.762 636.121 696.365C626.681 705.805 615.532 713.292 602.674 718.826C589.979 724.197 576.388 726.883 561.902 726.883C548.882 726.883 536.349 724.604 524.305 720.047C512.423 715.49 501.681 708.816 492.078 700.027C482.475 708.816 471.652 715.49 459.607 720.047C447.563 724.604 435.031 726.883 422.01 726.883C407.524 726.883 393.852 724.197 380.994 718.826C368.299 713.292 357.15 705.805 347.547 696.365C338.107 686.762 330.62 675.613 325.086 662.918C319.715 650.06 317.029 636.388 317.029 621.902V371.902H387.098V621.902C387.098 626.785 387.993 631.424 389.783 635.818C391.574 640.05 394.015 643.794 397.107 647.049C400.363 650.141 404.106 652.583 408.338 654.373C412.57 656.163 417.127 657.059 422.01 657.059C426.893 657.059 431.45 656.163 435.682 654.373C439.913 652.583 443.576 650.141 446.668 647.049C449.923 643.794 452.446 640.05 454.236 635.818C456.027 631.424 456.922 626.785 456.922 621.902V371.902H526.99V621.902C526.99 626.785 527.885 631.424 529.676 635.818C531.466 640.05 533.908 643.794 537 647.049C540.255 650.141 543.999 652.583 548.23 654.373C552.462 656.163 557.02 657.059 561.902 657.059C566.785 657.059 571.342 656.163 575.574 654.373C579.806 652.583 583.468 650.141 586.561 647.049C589.816 643.794 592.339 640.05 594.129 635.818C596.082 631.424 597.059 626.785 597.059 621.902V371.902H666.883V621.902Z" fill="white"/>
<path d="M658.582 662.918L657.204 662.325L657.201 662.334L658.582 662.918ZM636.121 696.365L637.182 697.426L636.121 696.365ZM602.674 718.826L603.258 720.208L603.267 720.204L602.674 718.826ZM524.305 720.047L523.767 721.447L523.774 721.45L524.305 720.047ZM492.078 700.027L493.091 698.921L492.078 697.994L491.065 698.921L492.078 700.027ZM380.994 718.826L380.395 720.201L380.405 720.206L380.416 720.21L380.994 718.826ZM347.547 696.365L346.477 697.417L346.486 697.426L346.495 697.435L347.547 696.365ZM325.086 662.918L323.702 663.496L323.706 663.507L323.711 663.517L325.086 662.918ZM317.029 371.902V370.402H315.529V371.902H317.029ZM387.098 371.902H388.598V370.402H387.098V371.902ZM389.783 635.818L388.394 636.384L388.398 636.394L388.402 636.403L389.783 635.818ZM397.107 647.049L396.02 648.082L396.046 648.11L396.074 648.136L397.107 647.049ZM408.338 654.373L407.753 655.754L408.338 654.373ZM446.668 647.049L445.607 645.988L446.668 647.049ZM454.236 635.818L455.618 636.403L455.622 636.394L455.625 636.384L454.236 635.818ZM456.922 371.902V370.402H455.422V371.902H456.922ZM526.99 371.902H528.49V370.402H526.99V371.902ZM529.676 635.818L528.287 636.384L528.29 636.394L528.294 636.403L529.676 635.818ZM537 647.049L535.913 648.082L535.939 648.11L535.967 648.136L537 647.049ZM586.561 647.049L587.621 648.109L586.561 647.049ZM594.129 635.818L592.758 635.209L592.753 635.221L592.747 635.234L594.129 635.818ZM597.059 371.902V370.402H595.559V371.902H597.059ZM666.883 371.902H668.383V370.402H666.883V371.902ZM665.383 621.902C665.383 636.191 662.655 649.661 657.204 662.325L659.96 663.511C665.577 650.459 668.383 636.585 668.383 621.902H665.383ZM657.201 662.334C651.904 674.854 644.525 685.84 635.06 695.305L637.182 697.426C646.923 687.684 654.518 676.373 659.963 663.502L657.201 662.334ZM635.06 695.305C625.761 704.604 614.773 711.986 602.081 717.448L603.267 720.204C616.291 714.599 627.601 707.007 637.182 697.426L635.06 695.305ZM602.089 717.445C589.588 722.734 576.198 725.383 561.902 725.383V728.383C576.578 728.383 590.369 725.661 603.258 720.208L602.089 717.445ZM561.902 725.383C549.061 725.383 536.708 723.136 524.836 718.644L523.774 721.45C535.99 726.072 548.702 728.383 561.902 728.383V725.383ZM524.842 718.646C513.14 714.158 502.558 707.586 493.091 698.921L491.065 701.134C500.804 710.047 511.706 716.821 523.768 721.447L524.842 718.646ZM491.065 698.921C481.601 707.583 470.941 714.155 459.077 718.644L460.138 721.45C472.362 716.824 483.349 710.05 493.091 701.134L491.065 698.921ZM459.077 718.644C447.204 723.136 434.851 725.383 422.01 725.383V728.383C435.21 728.383 447.922 726.072 460.138 721.45L459.077 718.644ZM422.01 725.383C407.715 725.383 394.24 722.734 381.572 717.442L380.416 720.21C393.464 725.661 407.334 728.383 422.01 728.383V725.383ZM381.594 717.451C369.061 711.988 358.067 704.603 348.598 695.296L346.495 697.435C356.233 707.007 367.536 714.596 380.395 720.201L381.594 717.451ZM348.617 695.314C339.309 685.845 331.924 674.851 326.461 662.319L323.711 663.517C329.316 676.376 336.905 687.679 346.477 697.417L348.617 695.314ZM326.47 662.34C321.178 649.672 318.529 636.198 318.529 621.902H315.529C315.529 636.579 318.251 650.448 323.702 663.496L326.47 662.34ZM318.529 621.902V371.902H315.529V621.902H318.529ZM317.029 373.402H387.098V370.402H317.029V373.402ZM385.598 371.902V621.902H388.598V371.902H385.598ZM385.598 621.902C385.598 626.973 386.528 631.805 388.394 636.384L391.172 635.252C389.457 631.043 388.598 626.597 388.598 621.902H385.598ZM388.402 636.403C390.261 640.797 392.8 644.693 396.02 648.082L398.195 646.016C395.23 642.894 392.886 639.304 391.165 635.234L388.402 636.403ZM396.074 648.136C399.463 651.356 403.36 653.896 407.753 655.754L408.922 652.992C404.853 651.27 401.262 648.927 398.141 645.961L396.074 648.136ZM407.753 655.754C412.182 657.628 416.939 658.559 422.01 658.559V655.559C417.315 655.559 412.958 654.699 408.922 652.992L407.753 655.754ZM422.01 658.559C427.081 658.559 431.838 657.628 436.266 655.754L435.097 652.992C431.062 654.699 426.705 655.559 422.01 655.559V658.559ZM436.266 655.754C440.667 653.893 444.493 651.345 447.729 648.109L445.607 645.988C442.658 648.937 439.16 651.273 435.097 652.992L436.266 655.754ZM447.729 648.109C451.12 644.718 453.752 640.813 455.618 636.403L452.855 635.234C451.14 639.287 448.726 642.869 445.607 645.988L447.729 648.109ZM455.625 636.384C457.491 631.805 458.422 626.973 458.422 621.902H455.422C455.422 626.597 454.562 631.043 452.847 635.252L455.625 636.384ZM458.422 621.902V371.902H455.422V621.902H458.422ZM456.922 373.402H526.99V370.402H456.922V373.402ZM525.49 371.902V621.902H528.49V371.902H525.49ZM525.49 621.902C525.49 626.973 526.421 631.805 528.287 636.384L531.065 635.252C529.35 631.043 528.49 626.597 528.49 621.902H525.49ZM528.294 636.403C530.153 640.797 532.693 644.693 535.913 648.082L538.087 646.016C535.122 642.894 532.779 639.304 531.057 635.234L528.294 636.403ZM535.967 648.136C539.356 651.356 543.252 653.896 547.646 655.754L548.815 652.992C544.745 651.27 541.155 648.927 538.033 645.961L535.967 648.136ZM547.646 655.754C552.074 657.628 556.832 658.559 561.902 658.559V655.559C557.208 655.559 552.85 654.699 548.815 652.992L547.646 655.754ZM561.902 658.559C566.973 658.559 571.731 657.628 576.159 655.754L574.99 652.992C570.954 654.699 566.597 655.559 561.902 655.559V658.559ZM576.159 655.754C580.559 653.893 584.385 651.345 587.621 648.109L585.5 645.988C582.551 648.937 579.053 651.273 574.99 652.992L576.159 655.754ZM587.621 648.109C591.013 644.718 593.645 640.813 595.51 636.403L592.747 635.234C591.033 639.287 588.619 642.869 585.5 645.988L587.621 648.109ZM595.5 636.428C597.539 631.838 598.559 626.992 598.559 621.902H595.559C595.559 626.579 594.625 631.009 592.758 635.209L595.5 636.428ZM598.559 621.902V371.902H595.559V621.902H598.559ZM597.059 373.402H666.883V370.402H597.059V373.402ZM665.383 371.902V621.902H668.383V371.902H665.383Z" fill="black"/>
<g opacity="0.98" filter="url(#filter1_b_0_1)">
<rect x="246" y="500" width="492" height="80" rx="40" fill="#026300" fill-opacity="0.5"/>
<rect x="246" y="500" width="492" height="80" rx="40" stroke="black" stroke-width="2"/>
</g>
<defs>
<filter id="filter0_b_0_1" x="1106" y="439" width="612" height="200" filterUnits="userSpaceOnUse" color-interpolation-filters="sRGB">
<feFlood flood-opacity="0" result="BackgroundImageFix"/>
<feGaussianBlur in="BackgroundImage" stdDeviation="30"/>
<feComposite in2="SourceAlpha" operator="in" result="effect1_backgroundBlur_0_1"/>
<feBlend mode="normal" in="SourceGraphic" in2="effect1_backgroundBlur_0_1" result="shape"/>
</filter>
<filter id="filter1_b_0_1" x="185" y="439" width="614" height="202" filterUnits="userSpaceOnUse" color-interpolation-filters="sRGB">
<feFlood flood-opacity="0" result="BackgroundImageFix"/>
<feGaussianBlur in="BackgroundImage" stdDeviation="30"/>
<feComposite in2="SourceAlpha" operator="in" result="effect1_backgroundBlur_0_1"/>
<feBlend mode="normal" in="SourceGraphic" in2="effect1_backgroundBlur_0_1" result="shape"/>
</filter>
<linearGradient id="paint0_linear_0_1" x1="811" y1="257" x2="212" y2="890" gradientUnits="userSpaceOnUse">
<stop stop-color="#00FF0A"/>
<stop offset="1"/>
</linearGradient>
</defs>
</svg>
