<svg width="2800" height="1080" viewBox="0 0 2800 1080" fill="none" xmlns="http://www.w3.org/2000/svg">
<g clip-path="url(#clip0_2_2)">
<rect y="61" width="750" height="750" rx="228" fill="url(#paint0_linear_2_2)" stroke="black" stroke-width="9"/>
<path d="M549.883 517.902C549.883 532.388 547.116 546.06 541.582 558.918C536.211 571.613 528.724 582.762 519.121 592.365C509.681 601.805 498.532 609.292 485.674 614.826C472.979 620.197 459.388 622.883 444.902 622.883C431.882 622.883 419.349 620.604 407.305 616.047C395.423 611.49 384.681 604.816 375.078 596.027C365.475 604.816 354.652 611.49 342.607 616.047C330.563 620.604 318.031 622.883 305.01 622.883C290.524 622.883 276.852 620.197 263.994 614.826C251.299 609.292 240.15 601.805 230.547 592.365C221.107 582.762 213.62 571.613 208.086 558.918C202.715 546.06 200.029 532.388 200.029 517.902V267.902H270.098V517.902C270.098 522.785 270.993 527.424 272.783 531.818C274.574 536.05 277.015 539.794 280.107 543.049C283.363 546.141 287.106 548.583 291.338 550.373C295.57 552.163 300.127 553.059 305.01 553.059C309.893 553.059 314.45 552.163 318.682 550.373C322.913 548.583 326.576 546.141 329.668 543.049C332.923 539.794 335.446 536.05 337.236 531.818C339.027 527.424 339.922 522.785 339.922 517.902V267.902H409.99V517.902C409.99 522.785 410.885 527.424 412.676 531.818C414.466 536.05 416.908 539.794 420 543.049C423.255 546.141 426.999 548.583 431.23 550.373C435.462 552.163 440.02 553.059 444.902 553.059C449.785 553.059 454.342 552.163 458.574 550.373C462.806 548.583 466.468 546.141 469.561 543.049C472.816 539.794 475.339 536.05 477.129 531.818C479.082 527.424 480.059 522.785 480.059 517.902V267.902H549.883V517.902Z" fill="white"/>
<path d="M541.582 558.918L540.204 558.325L540.201 558.333L541.582 558.918ZM519.121 592.365L520.182 593.426L519.121 592.365ZM485.674 614.826L486.258 616.208L486.267 616.204L485.674 614.826ZM407.305 616.047L406.768 617.447L406.774 617.45L407.305 616.047ZM375.078 596.027L376.091 594.921L375.078 593.994L374.065 594.921L375.078 596.027ZM263.994 614.826L263.395 616.201L263.405 616.206L263.416 616.21L263.994 614.826ZM230.547 592.365L229.477 593.417L229.486 593.426L229.495 593.435L230.547 592.365ZM208.086 558.918L206.702 559.496L206.706 559.507L206.711 559.517L208.086 558.918ZM200.029 267.902V266.402H198.529V267.902H200.029ZM270.098 267.902H271.598V266.402H270.098V267.902ZM272.783 531.818L271.394 532.384L271.398 532.394L271.402 532.403L272.783 531.818ZM280.107 543.049L279.02 544.082L279.046 544.11L279.074 544.136L280.107 543.049ZM291.338 550.373L290.753 551.754L291.338 550.373ZM329.668 543.049L328.607 541.988L329.668 543.049ZM337.236 531.818L338.618 532.403L338.622 532.394L338.625 532.384L337.236 531.818ZM339.922 267.902V266.402H338.422V267.902H339.922ZM409.99 267.902H411.49V266.402H409.99V267.902ZM412.676 531.818L411.287 532.384L411.29 532.394L411.294 532.403L412.676 531.818ZM420 543.049L418.913 544.082L418.939 544.11L418.967 544.136L420 543.049ZM469.561 543.049L470.621 544.109L469.561 543.049ZM477.129 531.818L475.758 531.209L475.753 531.221L475.747 531.234L477.129 531.818ZM480.059 267.902V266.402H478.559V267.902H480.059ZM549.883 267.902H551.383V266.402H549.883V267.902ZM548.383 517.902C548.383 532.191 545.655 545.661 540.204 558.325L542.96 559.511C548.577 546.459 551.383 532.585 551.383 517.902H548.383ZM540.201 558.333C534.904 570.854 527.525 581.84 518.06 591.305L520.182 593.426C529.923 583.684 537.518 572.373 542.963 559.502L540.201 558.333ZM518.06 591.305C508.761 600.604 497.773 607.986 485.081 613.448L486.267 616.204C499.291 610.599 510.601 603.007 520.182 593.426L518.06 591.305ZM485.089 613.445C472.588 618.734 459.198 621.383 444.902 621.383V624.383C459.578 624.383 473.369 621.661 486.258 616.208L485.089 613.445ZM444.902 621.383C432.061 621.383 419.708 619.136 407.836 614.644L406.774 617.45C418.99 622.072 431.702 624.383 444.902 624.383V621.383ZM407.842 614.646C396.14 610.158 385.558 603.586 376.091 594.921L374.065 597.134C383.804 606.047 394.706 612.821 406.768 617.447L407.842 614.646ZM374.065 594.921C364.601 603.583 353.941 610.155 342.077 614.644L343.138 617.45C355.362 612.824 366.349 606.05 376.091 597.134L374.065 594.921ZM342.077 614.644C330.204 619.136 317.851 621.383 305.01 621.383V624.383C318.21 624.383 330.922 622.072 343.138 617.45L342.077 614.644ZM305.01 621.383C290.715 621.383 277.24 618.734 264.572 613.442L263.416 616.21C276.464 621.661 290.334 624.383 305.01 624.383V621.383ZM264.594 613.451C252.061 607.988 241.067 600.603 231.598 591.296L229.495 593.435C239.233 603.007 250.536 610.596 263.395 616.201L264.594 613.451ZM231.617 591.314C222.309 581.845 214.924 570.851 209.461 558.319L206.711 559.517C212.316 572.376 219.905 583.679 229.477 593.417L231.617 591.314ZM209.47 558.34C204.178 545.672 201.529 532.198 201.529 517.902H198.529C198.529 532.579 201.251 546.448 206.702 559.496L209.47 558.34ZM201.529 517.902V267.902H198.529V517.902H201.529ZM200.029 269.402H270.098V266.402H200.029V269.402ZM268.598 267.902V517.902H271.598V267.902H268.598ZM268.598 517.902C268.598 522.973 269.528 527.805 271.394 532.384L274.172 531.252C272.457 527.043 271.598 522.597 271.598 517.902H268.598ZM271.402 532.403C273.261 536.797 275.8 540.693 279.02 544.082L281.195 542.016C278.23 538.894 275.886 535.304 274.165 531.234L271.402 532.403ZM279.074 544.136C282.463 547.356 286.36 549.896 290.753 551.754L291.922 548.992C287.853 547.27 284.262 544.927 281.141 541.961L279.074 544.136ZM290.753 551.754C295.182 553.628 299.939 554.559 305.01 554.559V551.559C300.315 551.559 295.958 550.699 291.922 548.992L290.753 551.754ZM305.01 554.559C310.081 554.559 314.838 553.628 319.266 551.754L318.097 548.992C314.062 550.699 309.705 551.559 305.01 551.559V554.559ZM319.266 551.754C323.667 549.893 327.493 547.345 330.729 544.109L328.607 541.988C325.658 544.937 322.16 547.273 318.097 548.992L319.266 551.754ZM330.729 544.109C334.12 540.718 336.752 536.813 338.618 532.403L335.855 531.234C334.14 535.287 331.726 538.869 328.607 541.988L330.729 544.109ZM338.625 532.384C340.491 527.805 341.422 522.973 341.422 517.902H338.422C338.422 522.597 337.562 527.043 335.847 531.252L338.625 532.384ZM341.422 517.902V267.902H338.422V517.902H341.422ZM339.922 269.402H409.99V266.402H339.922V269.402ZM408.49 267.902V517.902H411.49V267.902H408.49ZM408.49 517.902C408.49 522.973 409.421 527.805 411.287 532.384L414.065 531.252C412.35 527.043 411.49 522.597 411.49 517.902H408.49ZM411.294 532.403C413.153 536.797 415.693 540.693 418.913 544.082L421.087 542.016C418.122 538.894 415.779 535.304 414.057 531.234L411.294 532.403ZM418.967 544.136C422.356 547.356 426.252 549.896 430.646 551.754L431.815 548.992C427.745 547.27 424.155 544.927 421.033 541.961L418.967 544.136ZM430.646 551.754C435.074 553.628 439.832 554.559 444.902 554.559V551.559C440.208 551.559 435.85 550.699 431.815 548.992L430.646 551.754ZM444.902 554.559C449.973 554.559 454.731 553.628 459.159 551.754L457.99 548.992C453.954 550.699 449.597 551.559 444.902 551.559V554.559ZM459.159 551.754C463.559 549.893 467.385 547.345 470.621 544.109L468.5 541.988C465.551 544.937 462.053 547.273 457.99 548.992L459.159 551.754ZM470.621 544.109C474.013 540.718 476.645 536.813 478.51 532.403L475.747 531.234C474.033 535.287 471.619 538.869 468.5 541.988L470.621 544.109ZM478.5 532.428C480.539 527.838 481.559 522.992 481.559 517.902H478.559C478.559 522.579 477.625 527.009 475.758 531.209L478.5 532.428ZM481.559 517.902V267.902H478.559V517.902H481.559ZM480.059 269.402H549.883V266.402H480.059V269.402ZM548.383 267.902V517.902H551.383V267.902H548.383Z" fill="black"/>
<g opacity="0.98" filter="url(#filter0_b_2_2)">
<rect x="129" y="396" width="492" height="80" rx="40" fill="#026300" fill-opacity="0.85"/>
<rect x="129" y="396" width="492" height="80" rx="40" stroke="black" stroke-width="2"/>
</g>
<path d="M1196.44 516.701C1196.44 531.361 1193.64 545.197 1188.04 558.209C1182.61 571.057 1175.03 582.34 1165.31 592.058C1155.76 601.611 1144.47 609.188 1131.46 614.788C1118.61 620.224 1104.86 622.941 1090.2 622.941C1077.02 622.941 1064.34 620.635 1052.15 616.023C1040.13 611.411 1029.26 604.658 1019.54 595.764C1009.82 604.658 998.868 611.411 986.679 616.023C974.49 620.635 961.807 622.941 948.63 622.941C933.97 622.941 920.134 620.224 907.122 614.788C894.274 609.188 882.992 601.611 873.273 592.058C863.72 582.34 856.143 571.057 850.543 558.209C845.107 545.197 842.39 531.361 842.39 516.701V263.701H913.299V516.701C913.299 521.643 914.205 526.337 916.017 530.784C917.828 535.067 920.299 538.855 923.429 542.149C926.723 545.279 930.511 547.75 934.794 549.562C939.076 551.373 943.688 552.279 948.63 552.279C953.571 552.279 958.183 551.373 962.466 549.562C966.748 547.75 970.454 545.279 973.584 542.149C976.878 538.855 979.431 535.067 981.243 530.784C983.055 526.337 983.961 521.643 983.961 516.701V263.701H1054.87V516.701C1054.87 521.643 1055.78 526.337 1057.59 530.784C1059.4 535.067 1061.87 538.855 1065 542.149C1068.29 545.279 1072.08 547.75 1076.37 549.562C1080.65 551.373 1085.26 552.279 1090.2 552.279C1095.14 552.279 1099.75 551.373 1104.04 549.562C1108.32 547.75 1112.03 545.279 1115.16 542.149C1118.45 538.855 1121 535.067 1122.81 530.784C1124.79 526.337 1125.78 521.643 1125.78 516.701V263.701H1196.44V516.701ZM1502.81 618H1259.94V263.701H1502.81V334.61H1330.85V405.52H1447.22V476.429H1330.85V547.091H1502.81V618ZM1835.86 511.76C1835.86 526.419 1833.06 540.173 1827.46 553.021C1821.86 565.868 1814.2 577.151 1804.48 586.869C1794.93 596.423 1783.73 603.999 1770.88 609.6C1758.03 615.2 1744.28 618 1729.62 618H1552.47V263.701H1729.62C1744.28 263.701 1758.03 266.501 1770.88 272.102C1783.73 277.702 1794.93 285.361 1804.48 295.079C1814.2 304.632 1821.86 315.833 1827.46 328.681C1833.06 341.528 1835.86 355.282 1835.86 369.941C1835.86 376.53 1834.95 383.283 1833.14 390.201C1831.33 397.119 1828.78 403.79 1825.48 410.214C1822.19 416.638 1818.24 422.485 1813.62 427.756C1809.01 433.027 1803.9 437.392 1798.3 440.851C1804.07 443.98 1809.26 448.263 1813.87 453.698C1818.48 458.969 1822.44 464.816 1825.73 471.24C1829.02 477.664 1831.49 484.417 1833.14 491.5C1834.95 498.418 1835.86 505.171 1835.86 511.76ZM1623.38 547.091H1729.62C1734.56 547.091 1739.17 546.185 1743.46 544.373C1747.74 542.561 1751.44 540.09 1754.57 536.961C1757.87 533.667 1760.42 529.878 1762.23 525.596C1764.04 521.313 1764.95 516.701 1764.95 511.76C1764.95 506.818 1764.04 502.206 1762.23 497.924C1760.42 493.641 1757.87 489.935 1754.57 486.806C1751.44 483.511 1747.74 480.958 1743.46 479.146C1739.17 477.335 1734.56 476.429 1729.62 476.429H1623.38V547.091ZM1623.38 405.52H1729.62C1734.56 405.52 1739.17 404.614 1743.46 402.802C1747.74 400.99 1751.44 398.519 1754.57 395.39C1757.87 392.095 1760.42 388.307 1762.23 384.024C1764.04 379.577 1764.95 374.883 1764.95 369.941C1764.95 365 1764.04 360.388 1762.23 356.105C1760.42 351.823 1757.87 348.117 1754.57 344.987C1751.44 341.693 1747.74 339.14 1743.46 337.328C1739.17 335.516 1734.56 334.61 1729.62 334.61H1623.38V405.52ZM2137.53 618H1889.47V263.701H1960.38V547.091H2137.53V618ZM2441.68 476.429C2441.68 496.03 2437.97 514.478 2430.56 531.772C2423.15 548.903 2413.02 563.892 2400.17 576.739C2387.32 589.422 2372.25 599.47 2354.95 606.882C2337.82 614.294 2319.46 618 2299.86 618C2280.26 618 2261.81 614.294 2244.51 606.882C2227.38 599.47 2212.39 589.422 2199.55 576.739C2186.86 563.892 2176.82 548.903 2169.4 531.772C2161.99 514.478 2158.29 496.03 2158.29 476.429V263.701H2228.95V476.429C2228.95 486.147 2230.76 495.288 2234.38 503.854C2238.17 512.419 2243.28 519.913 2249.7 526.337C2256.13 532.761 2263.62 537.867 2272.19 541.655C2280.92 545.279 2290.14 547.091 2299.86 547.091C2309.58 547.091 2318.72 545.279 2327.28 541.655C2336.01 537.867 2343.59 532.761 2350.01 526.337C2356.44 519.913 2361.46 512.419 2365.08 503.854C2368.87 495.288 2370.77 486.147 2370.77 476.429V263.701H2441.68V476.429ZM2574.11 334.61V476.429H2645.01C2654.73 476.429 2663.87 474.617 2672.44 470.993C2681 467.205 2688.5 462.099 2694.92 455.675C2701.35 449.251 2706.37 441.757 2709.99 433.191C2713.78 424.462 2715.68 415.238 2715.68 405.52C2715.68 395.801 2713.78 386.66 2709.99 378.095C2706.37 369.365 2701.35 361.788 2694.92 355.364C2688.5 348.94 2681 343.917 2672.44 340.293C2663.87 336.505 2654.73 334.61 2645.01 334.61H2574.11ZM2574.11 618H2503.2V263.701H2645.01C2658.03 263.701 2670.55 265.431 2682.57 268.89C2694.59 272.184 2705.79 276.961 2716.17 283.22C2726.71 289.314 2736.27 296.726 2744.83 305.456C2753.56 314.021 2760.97 323.575 2767.07 334.116C2773.33 344.658 2778.1 355.941 2781.4 367.965C2784.86 379.989 2786.59 392.507 2786.59 405.52C2786.59 417.708 2785.02 429.568 2781.89 441.098C2778.93 452.628 2774.56 463.581 2768.8 473.958C2763.2 484.335 2756.28 493.888 2748.04 502.618C2739.81 511.348 2730.58 518.925 2720.37 525.349L2759.66 618H2684.3L2653.42 546.597L2574.11 547.091V618Z" fill="white"/>
</g>
<defs>
<filter id="filter0_b_2_2" x="68" y="335" width="614" height="202" filterUnits="userSpaceOnUse" color-interpolation-filters="sRGB">
<feFlood flood-opacity="0" result="BackgroundImageFix"/>
<feGaussianBlur in="BackgroundImage" stdDeviation="30"/>
<feComposite in2="SourceAlpha" operator="in" result="effect1_backgroundBlur_2_2"/>
<feBlend mode="normal" in="SourceGraphic" in2="effect1_backgroundBlur_2_2" result="shape"/>
</filter>
<linearGradient id="paint0_linear_2_2" x1="694" y1="153" x2="95" y2="786" gradientUnits="userSpaceOnUse">
<stop offset="0.0992199" stop-color="#FF00D6"/>
<stop offset="0.779012" stop-color="#80FF00"/>
</linearGradient>
<clipPath id="clip0_2_2">
<rect width="2800" height="1080" fill="white"/>
</clipPath>
</defs>
</svg>
