<svg width="1920" height="1080" viewBox="0 0 1920 1080" fill="none" xmlns="http://www.w3.org/2000/svg">
<rect x="585" y="165" width="750" height="750" rx="228" fill="url(#paint0_linear_0_1)" stroke="black" stroke-width="9"/>
<path d="M1134.88 621.902C1134.88 636.388 1132.12 650.06 1126.58 662.918C1121.21 675.613 1113.72 686.762 1104.12 696.365C1094.68 705.805 1083.53 713.292 1070.67 718.826C1057.98 724.197 1044.39 726.883 1029.9 726.883C1016.88 726.883 1004.35 724.604 992.305 720.047C980.423 715.49 969.681 708.816 960.078 700.027C950.475 708.816 939.652 715.49 927.607 720.047C915.563 724.604 903.031 726.883 890.01 726.883C875.524 726.883 861.852 724.197 848.994 718.826C836.299 713.292 825.15 705.805 815.547 696.365C806.107 686.762 798.62 675.613 793.086 662.918C787.715 650.06 785.029 636.388 785.029 621.902V371.902H855.098V621.902C855.098 626.785 855.993 631.424 857.783 635.818C859.574 640.05 862.015 643.794 865.107 647.049C868.363 650.141 872.106 652.583 876.338 654.373C880.57 656.163 885.127 657.059 890.01 657.059C894.893 657.059 899.45 656.163 903.682 654.373C907.913 652.583 911.576 650.141 914.668 647.049C917.923 643.794 920.446 640.05 922.236 635.818C924.027 631.424 924.922 626.785 924.922 621.902V371.902H994.99V621.902C994.99 626.785 995.885 631.424 997.676 635.818C999.466 640.05 1001.91 643.794 1005 647.049C1008.26 650.141 1012 652.583 1016.23 654.373C1020.46 656.163 1025.02 657.059 1029.9 657.059C1034.79 657.059 1039.34 656.163 1043.57 654.373C1047.81 652.583 1051.47 650.141 1054.56 647.049C1057.82 643.794 1060.34 640.05 1062.13 635.818C1064.08 631.424 1065.06 626.785 1065.06 621.902V371.902H1134.88V621.902Z" fill="white"/>
<path d="M1126.58 662.918L1125.2 662.325L1125.2 662.333L1126.58 662.918ZM1104.12 696.365L1105.18 697.426L1104.12 696.365ZM1070.67 718.826L1071.26 720.208L1071.27 720.204L1070.67 718.826ZM992.305 720.047L991.768 721.447L991.774 721.45L992.305 720.047ZM960.078 700.027L961.091 698.921L960.078 697.994L959.065 698.921L960.078 700.027ZM848.994 718.826L848.395 720.201L848.405 720.206L848.416 720.21L848.994 718.826ZM815.547 696.365L814.477 697.417L814.486 697.426L814.495 697.435L815.547 696.365ZM793.086 662.918L791.702 663.496L791.706 663.507L791.711 663.517L793.086 662.918ZM785.029 371.902V370.402H783.529V371.902H785.029ZM855.098 371.902H856.598V370.402H855.098V371.902ZM857.783 635.818L856.394 636.384L856.398 636.394L856.402 636.403L857.783 635.818ZM865.107 647.049L864.02 648.082L864.046 648.11L864.074 648.136L865.107 647.049ZM876.338 654.373L875.753 655.754L876.338 654.373ZM914.668 647.049L913.607 645.988L914.668 647.049ZM922.236 635.818L923.618 636.403L923.622 636.394L923.625 636.384L922.236 635.818ZM924.922 371.902V370.402H923.422V371.902H924.922ZM994.99 371.902H996.49V370.402H994.99V371.902ZM997.676 635.818L996.287 636.384L996.29 636.394L996.294 636.403L997.676 635.818ZM1005 647.049L1003.91 648.082L1003.94 648.11L1003.97 648.136L1005 647.049ZM1054.56 647.049L1055.62 648.109L1054.56 647.049ZM1062.13 635.818L1060.76 635.209L1060.75 635.221L1060.75 635.234L1062.13 635.818ZM1065.06 371.902V370.402H1063.56V371.902H1065.06ZM1134.88 371.902H1136.38V370.402H1134.88V371.902ZM1133.38 621.902C1133.38 636.191 1130.65 649.661 1125.2 662.325L1127.96 663.511C1133.58 650.459 1136.38 636.585 1136.38 621.902H1133.38ZM1125.2 662.333C1119.9 674.854 1112.52 685.84 1103.06 695.305L1105.18 697.426C1114.92 687.684 1122.52 676.373 1127.96 663.502L1125.2 662.333ZM1103.06 695.305C1093.76 704.604 1082.77 711.986 1070.08 717.448L1071.27 720.204C1084.29 714.599 1095.6 707.007 1105.18 697.426L1103.06 695.305ZM1070.09 717.445C1057.59 722.734 1044.2 725.383 1029.9 725.383V728.383C1044.58 728.383 1058.37 725.661 1071.26 720.208L1070.09 717.445ZM1029.9 725.383C1017.06 725.383 1004.71 723.136 992.836 718.644L991.774 721.45C1003.99 726.072 1016.7 728.383 1029.9 728.383V725.383ZM992.842 718.646C981.14 714.158 970.558 707.586 961.091 698.921L959.065 701.134C968.804 710.047 979.706 716.821 991.768 721.447L992.842 718.646ZM959.065 698.921C949.601 707.583 938.941 714.155 927.077 718.644L928.138 721.45C940.362 716.824 951.349 710.05 961.091 701.134L959.065 698.921ZM927.077 718.644C915.204 723.136 902.851 725.383 890.01 725.383V728.383C903.21 728.383 915.922 726.072 928.138 721.45L927.077 718.644ZM890.01 725.383C875.715 725.383 862.24 722.734 849.572 717.442L848.416 720.21C861.464 725.661 875.334 728.383 890.01 728.383V725.383ZM849.594 717.451C837.061 711.988 826.067 704.603 816.598 695.296L814.495 697.435C824.233 707.007 835.536 714.596 848.395 720.201L849.594 717.451ZM816.617 695.314C807.309 685.845 799.924 674.851 794.461 662.319L791.711 663.517C797.316 676.376 804.905 687.679 814.477 697.417L816.617 695.314ZM794.47 662.34C789.178 649.672 786.529 636.198 786.529 621.902H783.529C783.529 636.579 786.251 650.448 791.702 663.496L794.47 662.34ZM786.529 621.902V371.902H783.529V621.902H786.529ZM785.029 373.402H855.098V370.402H785.029V373.402ZM853.598 371.902V621.902H856.598V371.902H853.598ZM853.598 621.902C853.598 626.973 854.528 631.805 856.394 636.384L859.172 635.252C857.457 631.043 856.598 626.597 856.598 621.902H853.598ZM856.402 636.403C858.261 640.797 860.8 644.693 864.02 648.082L866.195 646.016C863.23 642.894 860.886 639.304 859.165 635.234L856.402 636.403ZM864.074 648.136C867.463 651.356 871.36 653.896 875.753 655.754L876.922 652.992C872.853 651.27 869.262 648.927 866.141 645.961L864.074 648.136ZM875.753 655.754C880.182 657.628 884.939 658.559 890.01 658.559V655.559C885.315 655.559 880.958 654.699 876.922 652.992L875.753 655.754ZM890.01 658.559C895.081 658.559 899.838 657.628 904.266 655.754L903.097 652.992C899.062 654.699 894.705 655.559 890.01 655.559V658.559ZM904.266 655.754C908.667 653.893 912.493 651.345 915.729 648.109L913.607 645.988C910.658 648.937 907.16 651.273 903.097 652.992L904.266 655.754ZM915.729 648.109C919.12 644.718 921.752 640.813 923.618 636.403L920.855 635.234C919.14 639.287 916.726 642.869 913.607 645.988L915.729 648.109ZM923.625 636.384C925.491 631.805 926.422 626.973 926.422 621.902H923.422C923.422 626.597 922.562 631.043 920.847 635.252L923.625 636.384ZM926.422 621.902V371.902H923.422V621.902H926.422ZM924.922 373.402H994.99V370.402H924.922V373.402ZM993.49 371.902V621.902H996.49V371.902H993.49ZM993.49 621.902C993.49 626.973 994.421 631.805 996.287 636.384L999.065 635.252C997.35 631.043 996.49 626.597 996.49 621.902H993.49ZM996.294 636.403C998.153 640.797 1000.69 644.693 1003.91 648.082L1006.09 646.016C1003.12 642.894 1000.78 639.304 999.057 635.234L996.294 636.403ZM1003.97 648.136C1007.36 651.356 1011.25 653.896 1015.65 655.754L1016.81 652.992C1012.75 651.27 1009.15 648.927 1006.03 645.961L1003.97 648.136ZM1015.65 655.754C1020.07 657.628 1024.83 658.559 1029.9 658.559V655.559C1025.21 655.559 1020.85 654.699 1016.81 652.992L1015.65 655.754ZM1029.9 658.559C1034.97 658.559 1039.73 657.628 1044.16 655.754L1042.99 652.992C1038.95 654.699 1034.6 655.559 1029.9 655.559V658.559ZM1044.16 655.754C1048.56 653.893 1052.39 651.345 1055.62 648.109L1053.5 645.988C1050.55 648.937 1047.05 651.273 1042.99 652.992L1044.16 655.754ZM1055.62 648.109C1059.01 644.718 1061.64 640.813 1063.51 636.403L1060.75 635.234C1059.03 639.287 1056.62 642.869 1053.5 645.988L1055.62 648.109ZM1063.5 636.428C1065.54 631.838 1066.56 626.992 1066.56 621.902H1063.56C1063.56 626.579 1062.62 631.009 1060.76 635.209L1063.5 636.428ZM1066.56 621.902V371.902H1063.56V621.902H1066.56ZM1065.06 373.402H1134.88V370.402H1065.06V373.402ZM1133.38 371.902V621.902H1136.38V371.902H1133.38Z" fill="black"/>
<g opacity="0.98" filter="url(#filter0_b_0_1)">
<rect x="714" y="500" width="492" height="80" rx="40" fill="#026300" fill-opacity="0.75"/>
<rect x="714" y="500" width="492" height="80" rx="40" stroke="black" stroke-width="2"/>
</g>
<defs>
<filter id="filter0_b_0_1" x="653" y="439" width="614" height="202" filterUnits="userSpaceOnUse" color-interpolation-filters="sRGB">
<feFlood flood-opacity="0" result="BackgroundImageFix"/>
<feGaussianBlur in="BackgroundImage" stdDeviation="30"/>
<feComposite in2="SourceAlpha" operator="in" result="effect1_backgroundBlur_0_1"/>
<feBlend mode="normal" in="SourceGraphic" in2="effect1_backgroundBlur_0_1" result="shape"/>
</filter>
<linearGradient id="paint0_linear_0_1" x1="1279" y1="257" x2="680" y2="890" gradientUnits="userSpaceOnUse">
<stop offset="0.0992199" stop-color="#FF00D6"/>
<stop offset="0.779012" stop-color="#80FF00"/>
</linearGradient>
</defs>
</svg>
